<?xml version="1.0" encoding="UTF-8"?>
<svg width="512" height="512" viewBox="0 0 512 512" fill="none" xmlns="http://www.w3.org/2000/svg">
  <!-- Background Circle -->
  <circle cx="256" cy="256" r="248" fill="url(#gradient)" stroke="white" stroke-width="16"/>
  
  <!-- Meme Face (simplified trollface-inspired design) -->
  <path d="M256 140
           C 180 140, 120 200, 120 280
           C 120 360, 180 420, 256 420
           C 332 420, 392 360, 392 280
           C 392 200, 332 140, 256 140
           Z" 
        fill="white"/>
  
  <!-- Eyes -->
  <circle cx="200" cy="260" r="30" fill="#8B5CF6"/>
  <circle cx="312" cy="260" r="30" fill="#8B5CF6"/>
  
  <!-- Smile -->
  <path d="M180 320
           C 220 380, 292 380, 332 320"
        stroke="#8B5CF6" 
        stroke-width="16" 
        stroke-linecap="round"
        fill="none"/>
  
  <!-- Sparkles -->
  <path d="M120 120 L140 140 M120 140 L140 120" stroke="white" stroke-width="8" stroke-linecap="round"/>
  <path d="M360 120 L380 140 M360 140 L380 120" stroke="white" stroke-width="8" stroke-linecap="round"/>
  
  <!-- Gradient Definition -->
  <defs>
    <linearGradient id="gradient" x1="0" y1="0" x2="512" y2="512" gradientUnits="userSpaceOnUse">
      <stop offset="0%" stop-color="#8B5CF6"/>
      <stop offset="50%" stop-color="#EC4899"/>
      <stop offset="100%" stop-color="#F97316"/>
    </linearGradient>
  </defs>
</svg>
